<?xml version="1.0" standalone="no"?>
<!DOCTYPE svg PUBLIC "-//W3C//DTD SVG 20010904//EN"
 "http://www.w3.org/TR/2001/REC-SVG-20010904/DTD/svg10.dtd">
<svg version="1.0" xmlns="http://www.w3.org/2000/svg"
 width="500.000000pt" height="500.000000pt" viewBox="0 0 500.000000 500.000000"
 preserveAspectRatio="xMidYMid meet">
<metadata>
Created by potrace 1.14, written by Peter Selinger 2001-2017
</metadata>
<g transform="translate(0.000000,500.000000) scale(0.100000,-0.100000)"
fill="#000000" stroke="none">
<path d="M1968 4086 c-57 -20 -120 -61 -159 -103 -67 -69 -146 -192 -189 -289
-44 -100 -99 -301 -120 -439 -7 -44 -19 -92 -26 -107 -7 -14 -19 -58 -25 -96
l-12 -70 -66 -22 c-85 -29 -361 -158 -473 -221 -111 -64 -142 -99 -135 -153 8
-55 33 -85 113 -128 75 -41 290 -116 421 -147 45 -11 87 -22 93 -26 15 -9 1
-106 -18 -128 -22 -24 -18 -79 7 -120 17 -27 21 -51 21 -113 0 -44 7 -136 15
-204 48 -387 208 -727 470 -999 173 -179 341 -287 511 -327 87 -20 256 -15
329 11 294 102 564 348 747 680 128 233 201 509 215 812 5 111 9 135 25 149
24 23 24 87 -1 122 -16 21 -18 38 -14 79 5 50 7 51 41 58 65 12 376 111 440
140 66 29 117 78 128 121 9 36 -22 108 -59 140 -65 55 -332 157 -512 194 l-80
17 -13 83 c-7 46 -24 105 -37 132 -14 27 -25 56 -25 65 0 8 -18 83 -41 165
-79 295 -172 479 -308 616 -79 79 -134 105 -238 110 -109 5 -171 -14 -313 -96
-148 -85 -153 -85 -309 2 -65 37 -145 75 -177 86 -66 23 -170 26 -226 6z m171
-140 l44 -23 -48 -12 c-114 -29 -244 -121 -286 -203 -11 -21 -22 -38 -25 -38
-3 0 12 33 33 73 42 80 128 173 188 205 49 26 41 26 94 -2z m-346 -371 c-12
-44 -16 -107 -17 -233 -1 -128 -4 -171 -13 -168 -6 3 -28 8 -48 12 -20 3 -39
12 -41 19 -9 22 54 239 118 408 18 46 18 25 1 -38z m-107 -542 c-3 -16 -6 -50
-8 -76 -3 -61 -2 -61 162 -103 69 -18 117 -33 106 -33 -10 -1 -90 18 -177 41
-117 30 -159 45 -159 56 0 9 5 44 11 79 11 61 12 63 41 63 27 0 29 -2 24 -27z
m-131 -211 c-27 -24 -148 -103 -205 -135 -78 -43 -293 -127 -324 -127 -13 0
-38 5 -56 12 -33 11 -32 12 71 38 136 34 275 92 449 185 66 35 81 42 65 27z
m442 -8 c-3 -3 -12 -4 -19 -1 -8 3 -5 6 6 6 11 1 17 -2 13 -5z m66 -11 c-7 -2
-21 -2 -30 0 -10 3 -4 5 12 5 17 0 24 -2 18 -5z m60 -10 c-7 -2 -21 -2 -30 0
-10 3 -4 5 12 5 17 0 24 -2 18 -5z m90 -10 c-7 -2 -21 -2 -30 0 -10 3 -4 5 12
5 17 0 24 -2 18 -5z m650 -350 c-29 -2 -78 -2 -110 0 -32 2 -8 3 52 3 61 0 87
-1 58 -3z m-1093 -199 c58 -7 128 -14 157 -14 28 0 55 -5 58 -11 7 -10 -350
-379 -366 -379 -4 0 -19 24 -33 53 -36 73 -55 240 -37 322 l13 57 51 -7 c29
-3 99 -13 157 -21z m1306 -125 c-141 -149 -243 -241 -251 -228 -4 6 -13 56
-21 110 -14 96 -13 102 7 150 l21 49 72 1 c39 1 105 5 146 9 41 4 86 7 99 8
19 2 6 -16 -73 -99z m-440 55 c-3 -9 -9 -33 -12 -55 l-7 -39 -98 0 -99 0 0 39
c0 22 -3 46 -6 55 -5 14 8 16 111 16 103 0 116 -2 111 -16z m32 -270 c17 -87
49 -148 113 -218 83 -91 178 -134 332 -150 49 -6 67 -12 67 -22 0 -10 5 -12
13 -8 9 6 9 4 1 -7 -7 -8 -11 -46 -10 -91 0 -42 -2 -74 -5 -72 -4 2 -9 -15
-12 -39 -9 -63 -12 -74 -24 -89 -7 -7 -21 -34 -32 -60 -11 -27 -28 -49 -40
-53 -30 -9 -58 -67 -60 -127 -1 -9 -11 -18 -23 -20 -18 -2 -23 -10 -23 -33 0
-37 -11 -56 -29 -49 -8 3 -23 -7 -34 -24 -12 -16 -40 -47 -62 -70 -23 -23 -39
-46 -35 -52 3 -5 0 -7 -8 -5 -7 3 -26 -6 -43 -20 -35 -31 -106 -64 -198 -95
-138 -45 -257 -11 -432 126 -159 125 -302 310 -414 539 -58 119 -120 289 -136
371 l-7 39 38 -34 c84 -73 233 -117 371 -108 231 16 384 144 429 358 8 39 18
75 21 80 3 5 55 7 117 5 l111 -4 14 -68z m632 -358 c0 -2 -7 -6 -15 -10 -8 -3
-15 -1 -15 4 0 6 7 10 15 10 8 0 15 -2 15 -4z m-60 -10 c0 -2 -7 -7 -16 -10
-8 -3 -12 -2 -9 4 6 10 25 14 25 6z m193 -141 c-3 -9 -8 -14 -10 -11 -3 3 -2
9 2 15 9 16 15 13 8 -4z m-223 -420 c0 -1 -10 -10 -22 -21 -14 -12 -18 -13
-10 -3 6 9 10 18 7 21 -3 2 2 5 10 5 8 0 15 -1 15 -2z m-70 -79 c0 -2 -8 -10
-17 -17 -16 -13 -17 -12 -4 4 13 16 21 21 21 13z m-55 -45 c3 -5 2 -12 -3 -15
-5 -3 -9 1 -9 9 0 17 3 19 12 6z m-25 -34 c0 -2 -10 -12 -21 -23 -22 -19 -22
-19 -8 4 12 19 29 30 29 19z m-50 -51 c0 -2 -8 -10 -17 -17 -16 -13 -17 -12
-4 4 13 16 21 21 21 13z m-70 -50 c0 -2 -7 -9 -15 -16 -13 -11 -14 -10 -9 4 5
14 24 23 24 12z m-195 -117 c-4 -5 -12 -9 -18 -8 -9 0 -8 2 1 6 6 2 9 10 6 15
-4 7 -2 8 5 4 6 -4 9 -12 6 -17z m-75 -19 c0 -5 -8 -10 -17 -10 -15 0 -16 2
-3 10 19 12 20 12 20 0z m37 4 c-3 -3 -12 -4 -19 -1 -8 3 -5 6 6 6 11 1 17 -2
13 -5z"/>
<path d="M2840 1314 c-80 -81 -196 -124 -337 -124 -91 0 -171 20 -199 51 -43
48 -109 63 -136 32 -41 -47 -28 -96 43 -157 86 -73 237 -107 393 -88 118 15
186 40 282 104 115 77 149 143 103 202 -16 21 -29 26 -63 26 -37 0 -47 -6 -86
-46z"/>
<path d="M3084 1144 c-8 -20 -13 -38 -11 -40 2 -2 11 14 20 36 19 50 12 53 -9
4z"/>
</g>
</svg>
